<svg xmlns="http://www.w3.org/2000/svg" width="151.89" height="35" viewBox="0 0 151.89 35"><rect class="svg__rect" x="0" y="0" width="75.86" height="35" fill="#61DAFB"/><rect class="svg__rect" x="73.86" y="0" width="78.03" height="35" fill="#61DAFB"/><path class="svg__text" d="M15.70 22L14.22 22L14.22 13.47L17.22 13.47Q18.69 13.47 19.50 14.13Q20.30 14.79 20.30 16.05L20.30 16.05Q20.30 16.90 19.89 17.48Q19.47 18.06 18.73 18.37L18.73 18.37L20.65 21.92L20.65 22L19.06 22L17.35 18.71L15.70 18.71L15.70 22ZM15.70 14.66L15.70 17.52L17.22 17.52Q17.97 17.52 18.39 17.15Q18.82 16.77 18.82 16.11L18.82 16.11Q18.82 15.43 18.43 15.05Q18.04 14.68 17.26 14.66L17.26 14.66L15.70 14.66ZM30.27 22L24.69 22L24.69 13.47L30.23 13.47L30.23 14.66L26.18 14.66L26.18 17.02L29.68 17.02L29.68 18.19L26.18 18.19L26.18 20.82L30.27 20.82L30.27 22ZM35.25 22L33.71 22L36.93 13.47L38.26 13.47L41.49 22L39.94 22L39.24 20.01L35.94 20.01L35.25 22ZM37.59 15.28L36.35 18.82L38.83 18.82L37.59 15.28ZM45.17 18.19L45.17 18.19L45.17 17.39Q45.17 16.19 45.60 15.27Q46.03 14.35 46.83 13.85Q47.63 13.35 48.68 13.35L48.68 13.35Q50.09 13.35 50.95 14.12Q51.81 14.89 51.95 16.29L51.95 16.29L50.48 16.29Q50.37 15.37 49.94 14.96Q49.51 14.55 48.68 14.55L48.68 14.55Q47.71 14.55 47.19 15.26Q46.67 15.96 46.66 17.33L46.66 17.33L46.66 18.09Q46.66 19.47 47.16 20.20Q47.65 20.92 48.61 20.92L48.61 20.92Q49.48 20.92 49.92 20.53Q50.36 20.14 50.48 19.22L50.48 19.22L51.95 19.22Q51.82 20.59 50.94 21.35Q50.06 22.12 48.61 22.12L48.61 22.12Q47.59 22.12 46.81 21.63Q46.03 21.15 45.61 20.26Q45.19 19.37 45.17 18.19ZM57.95 14.66L55.31 14.66L55.31 13.47L62.08 13.47L62.08 14.66L59.42 14.66L59.42 22L57.95 22L57.95 14.66Z" fill="#FFFFFF"/><path class="svg__text" d="M88.84 15.44L87.28 15.44L87.28 13.60L91.22 13.60L91.22 22L88.84 22L88.84 15.44ZM95.91 19.53L95.91 19.53Q95.91 18.89 96.22 18.40Q96.54 17.91 97.11 17.57L97.11 17.57Q96.68 17.27 96.45 16.84Q96.22 16.41 96.22 15.88L96.22 15.88Q96.22 15.15 96.63 14.59Q97.05 14.03 97.82 13.73Q98.58 13.43 99.56 13.43L99.56 13.43Q100.55 13.43 101.31 13.73Q102.07 14.03 102.49 14.59Q102.91 15.15 102.91 15.88L102.91 15.88Q102.91 16.41 102.68 16.84Q102.44 17.27 102.01 17.57L102.01 17.57Q102.58 17.91 102.90 18.40Q103.21 18.89 103.21 19.53L103.21 19.53Q103.21 20.32 102.75 20.92Q102.30 21.52 101.47 21.84Q100.64 22.17 99.56 22.17L99.56 22.17Q98.48 22.17 97.65 21.84Q96.83 21.52 96.37 20.92Q95.91 20.32 95.91 19.53ZM98.30 19.46L98.30 19.46Q98.30 19.94 98.64 20.22Q98.99 20.50 99.56 20.50L99.56 20.50Q100.14 20.50 100.48 20.22Q100.82 19.94 100.82 19.46L100.82 19.46Q100.82 18.98 100.48 18.70Q100.14 18.41 99.56 18.41L99.56 18.41Q98.99 18.41 98.64 18.70Q98.30 18.98 98.30 19.46ZM98.57 15.99L98.57 15.99Q98.57 16.40 98.83 16.63Q99.10 16.86 99.56 16.86L99.56 16.86Q100.02 16.86 100.29 16.63Q100.57 16.40 100.57 15.99L100.57 15.99Q100.57 15.57 100.29 15.33Q100.02 15.10 99.56 15.10L99.56 15.10Q99.12 15.10 98.84 15.33Q98.57 15.57 98.57 15.99ZM107.39 20.75L107.39 20.75Q107.39 20.15 107.78 19.78Q108.17 19.41 108.76 19.41L108.76 19.41Q109.36 19.41 109.74 19.78Q110.13 20.15 110.13 20.75L110.13 20.75Q110.13 21.34 109.74 21.72Q109.35 22.11 108.76 22.11L108.76 22.11Q108.18 22.11 107.79 21.72Q107.39 21.34 107.39 20.75ZM115.64 16.17L113.88 15.19Q114.37 14.37 115.26 13.90Q116.14 13.43 117.36 13.43L117.36 13.43Q118.32 13.43 119.05 13.74Q119.79 14.05 120.20 14.64Q120.62 15.22 120.62 15.99L120.62 15.99Q120.62 16.67 120.32 17.28Q120.03 17.89 119.19 18.65L119.19 18.65L117.61 20.11L120.85 20.11L120.85 22L114.30 22L114.30 20.51L117.45 17.57Q117.91 17.14 118.06 16.83Q118.22 16.53 118.22 16.22L118.22 16.22Q118.22 15.81 117.94 15.58Q117.67 15.35 117.14 15.35L117.14 15.35Q116.67 15.35 116.28 15.56Q115.89 15.77 115.64 16.17L115.64 16.17ZM124.94 20.75L124.94 20.75Q124.94 20.15 125.33 19.78Q125.72 19.41 126.31 19.41L126.31 19.41Q126.91 19.41 127.29 19.78Q127.67 20.15 127.67 20.75L127.67 20.75Q127.67 21.34 127.29 21.72Q126.90 22.11 126.31 22.11L126.31 22.11Q125.73 22.11 125.33 21.72Q124.94 21.34 124.94 20.75ZM131.91 17.80L131.91 17.80Q131.91 16.45 132.38 15.46Q132.85 14.46 133.69 13.95Q134.53 13.43 135.61 13.43L135.61 13.43Q136.67 13.43 137.52 13.95Q138.36 14.46 138.83 15.46Q139.31 16.45 139.31 17.80L139.31 17.80Q139.31 19.15 138.83 20.15Q138.36 21.14 137.52 21.65Q136.68 22.17 135.61 22.17L135.61 22.17Q134.53 22.17 133.69 21.65Q132.85 21.14 132.38 20.15Q131.91 19.16 131.91 17.80ZM134.29 17.80L134.29 17.80Q134.29 19.06 134.64 19.64Q135.00 20.22 135.61 20.22L135.61 20.22Q136.21 20.22 136.57 19.64Q136.92 19.06 136.92 17.80L136.92 17.80Q136.92 16.54 136.57 15.96Q136.21 15.38 135.61 15.38L135.61 15.38Q135.00 15.38 134.64 15.96Q134.29 16.54 134.29 17.80Z" fill="#FFFFFF" x="86.86"/></svg>