<svg xmlns="http://www.w3.org/2000/svg" width="171.76" height="35" viewBox="0 0 171.76 35"><rect class="svg__rect" x="0" y="0" width="107.54" height="35" fill="#22B5BF"/><rect class="svg__rect" x="105.54" y="0" width="66.22" height="35" fill="#22B5BF"/><path class="svg__text" d="M15.70 22L14.22 22L14.22 13.47L17.22 13.47Q18.69 13.47 19.50 14.13Q20.30 14.79 20.30 16.05L20.30 16.05Q20.30 16.90 19.89 17.48Q19.47 18.06 18.73 18.37L18.73 18.37L20.65 21.92L20.65 22L19.06 22L17.35 18.71L15.70 18.71L15.70 22ZM15.70 14.66L15.70 17.52L17.22 17.52Q17.97 17.52 18.39 17.15Q18.82 16.77 18.82 16.11L18.82 16.11Q18.82 15.43 18.43 15.05Q18.04 14.68 17.26 14.66L17.26 14.66L15.70 14.66ZM30.27 22L24.69 22L24.69 13.47L30.23 13.47L30.23 14.66L26.18 14.66L26.18 17.02L29.68 17.02L29.68 18.19L26.18 18.19L26.18 20.82L30.27 20.82L30.27 22ZM34.20 18.19L34.20 18.19L34.20 17.39Q34.20 16.19 34.63 15.27Q35.05 14.35 35.85 13.85Q36.65 13.35 37.70 13.35L37.70 13.35Q39.11 13.35 39.98 14.12Q40.84 14.89 40.98 16.29L40.98 16.29L39.50 16.29Q39.39 15.37 38.96 14.96Q38.53 14.55 37.70 14.55L37.70 14.55Q36.73 14.55 36.22 15.26Q35.70 15.96 35.69 17.33L35.69 17.33L35.69 18.09Q35.69 19.47 36.18 20.20Q36.68 20.92 37.63 20.92L37.63 20.92Q38.50 20.92 38.94 20.53Q39.38 20.14 39.50 19.22L39.50 19.22L40.98 19.22Q40.85 20.59 39.97 21.35Q39.09 22.12 37.63 22.12L37.63 22.12Q36.61 22.12 35.84 21.63Q35.06 21.15 34.64 20.26Q34.22 19.37 34.20 18.19ZM46.77 22L45.29 22L45.29 13.47L46.77 13.47L46.77 17.02L50.59 17.02L50.59 13.47L52.06 13.47L52.06 22L50.59 22L50.59 18.21L46.77 18.21L46.77 22ZM57.58 22L56.04 22L59.26 13.47L60.59 13.47L63.82 22L62.28 22L61.58 20.01L58.27 20.01L57.58 22ZM59.93 15.28L58.69 18.82L61.16 18.82L59.93 15.28ZM69.26 22L67.78 22L67.78 13.47L70.78 13.47Q72.25 13.47 73.06 14.13Q73.86 14.79 73.86 16.05L73.86 16.05Q73.86 16.90 73.45 17.48Q73.03 18.06 72.30 18.37L72.30 18.37L74.21 21.92L74.21 22L72.62 22L70.91 18.71L69.26 18.71L69.26 22ZM69.26 14.66L69.26 17.52L70.78 17.52Q71.53 17.52 71.96 17.15Q72.38 16.77 72.38 16.11L72.38 16.11Q72.38 15.43 71.99 15.05Q71.60 14.68 70.82 14.66L70.82 14.66L69.26 14.66ZM79.94 14.66L77.30 14.66L77.30 13.47L84.07 13.47L84.07 14.66L81.41 14.66L81.41 22L79.94 22L79.94 14.66ZM87.39 19.42L87.39 19.42L88.87 19.42Q88.87 20.15 89.35 20.55Q89.83 20.95 90.73 20.95L90.73 20.95Q91.50 20.95 91.89 20.63Q92.28 20.32 92.28 19.80L92.28 19.80Q92.28 19.24 91.89 18.94Q91.49 18.63 90.46 18.32Q89.43 18.01 88.82 17.63L88.82 17.63Q87.65 16.90 87.65 15.72L87.65 15.72Q87.65 14.69 88.49 14.02Q89.33 13.35 90.68 13.35L90.68 13.35Q91.57 13.35 92.26 13.68Q92.96 14.01 93.36 14.61Q93.76 15.22 93.76 15.96L93.76 15.96L92.28 15.96Q92.28 15.29 91.86 14.91Q91.44 14.54 90.66 14.54L90.66 14.54Q89.94 14.54 89.54 14.85Q89.14 15.16 89.14 15.71L89.14 15.71Q89.14 16.18 89.57 16.50Q90.00 16.81 91.00 17.10Q91.99 17.40 92.60 17.78Q93.20 18.16 93.48 18.65Q93.76 19.13 93.76 19.79L93.76 19.79Q93.76 20.86 92.95 21.49Q92.13 22.12 90.73 22.12L90.73 22.12Q89.80 22.12 89.03 21.77Q88.25 21.43 87.82 20.83Q87.39 20.22 87.39 19.42Z" fill="#FFFFFF"/><path class="svg__text" d="M120.58 16.17L118.82 15.19Q119.31 14.37 120.20 13.90Q121.09 13.43 122.30 13.43L122.30 13.43Q123.26 13.43 124.00 13.74Q124.73 14.05 125.15 14.64Q125.56 15.22 125.56 15.99L125.56 15.99Q125.56 16.67 125.27 17.28Q124.97 17.89 124.13 18.65L124.13 18.65L122.55 20.11L125.79 20.11L125.79 22L119.25 22L119.25 20.51L122.39 17.57Q122.85 17.14 123.01 16.83Q123.16 16.53 123.16 16.22L123.16 16.22Q123.16 15.81 122.89 15.58Q122.61 15.35 122.08 15.35L122.08 15.35Q121.61 15.35 121.22 15.56Q120.84 15.77 120.58 16.17L120.58 16.17ZM129.88 20.75L129.88 20.75Q129.88 20.15 130.27 19.78Q130.66 19.41 131.25 19.41L131.25 19.41Q131.85 19.41 132.23 19.78Q132.62 20.15 132.62 20.75L132.62 20.75Q132.62 21.34 132.23 21.72Q131.84 22.11 131.25 22.11L131.25 22.11Q130.67 22.11 130.28 21.72Q129.88 21.34 129.88 20.75ZM138.07 15.44L136.51 15.44L136.51 13.60L140.45 13.60L140.45 22L138.07 22L138.07 15.44ZM145.10 20.75L145.10 20.75Q145.10 20.15 145.49 19.78Q145.88 19.41 146.48 19.41L146.48 19.41Q147.07 19.41 147.46 19.78Q147.84 20.15 147.84 20.75L147.84 20.75Q147.84 21.34 147.45 21.72Q147.06 22.11 146.48 22.11L146.48 22.11Q145.90 22.11 145.50 21.72Q145.10 21.34 145.10 20.75ZM151.85 16.30L151.85 16.30Q151.85 15.45 152.29 14.80Q152.73 14.14 153.48 13.79Q154.23 13.43 155.14 13.43L155.14 13.43Q156.95 13.43 158.00 14.50Q159.04 15.57 159.04 17.57L159.04 17.57Q159.04 19.01 158.48 20.05Q157.93 21.09 156.91 21.63Q155.90 22.17 154.57 22.17L154.57 22.17Q153.86 22.17 153.21 22.01Q152.56 21.84 152.11 21.55L152.11 21.55L152.97 19.85Q153.58 20.28 154.52 20.28L154.52 20.28Q155.42 20.28 155.97 19.79Q156.53 19.29 156.63 18.34L156.63 18.34Q155.91 18.95 154.74 18.95L154.74 18.95Q153.95 18.95 153.29 18.62Q152.63 18.29 152.24 17.68Q151.85 17.08 151.85 16.30ZM154.16 16.19L154.16 16.19Q154.16 16.67 154.48 16.96Q154.80 17.25 155.31 17.25L155.31 17.25Q155.83 17.25 156.15 16.96Q156.47 16.66 156.47 16.18L156.47 16.18Q156.47 15.71 156.16 15.42Q155.84 15.12 155.30 15.12L155.30 15.12Q154.80 15.12 154.48 15.41Q154.16 15.70 154.16 16.19Z" fill="#FFFFFF" x="118.54"/></svg>