<svg xmlns="http://www.w3.org/2000/svg" width="105.54" height="35" viewBox="0 0 105.54 35"><rect class="svg__rect" x="0" y="0" width="105.54" height="35" fill="#22B5BF"/><rect class="svg__rect" x="105.54" y="0" width="0" height="35" fill="#389AD5"/><path class="svg__text" d="M15.70 22L14.22 22L14.22 13.47L17.22 13.47Q18.69 13.47 19.50 14.13Q20.30 14.79 20.30 16.05L20.30 16.05Q20.30 16.90 19.89 17.48Q19.47 18.06 18.73 18.37L18.73 18.37L20.65 21.92L20.65 22L19.06 22L17.35 18.71L15.70 18.71L15.70 22ZM15.70 14.66L15.70 17.52L17.22 17.52Q17.97 17.52 18.39 17.15Q18.82 16.77 18.82 16.11L18.82 16.11Q18.82 15.43 18.43 15.05Q18.04 14.68 17.26 14.66L17.26 14.66L15.70 14.66ZM30.27 22L24.69 22L24.69 13.47L30.23 13.47L30.23 14.66L26.18 14.66L26.18 17.02L29.68 17.02L29.68 18.19L26.18 18.19L26.18 20.82L30.27 20.82L30.27 22ZM34.20 18.19L34.20 18.19L34.20 17.39Q34.20 16.19 34.63 15.27Q35.05 14.35 35.85 13.85Q36.65 13.35 37.70 13.35L37.70 13.35Q39.11 13.35 39.98 14.12Q40.84 14.89 40.98 16.29L40.98 16.29L39.50 16.29Q39.39 15.37 38.96 14.96Q38.53 14.55 37.70 14.55L37.70 14.55Q36.73 14.55 36.22 15.26Q35.70 15.96 35.69 17.33L35.69 17.33L35.69 18.09Q35.69 19.47 36.18 20.20Q36.68 20.92 37.63 20.92L37.63 20.92Q38.50 20.92 38.94 20.53Q39.38 20.14 39.50 19.22L39.50 19.22L40.98 19.22Q40.85 20.59 39.97 21.35Q39.09 22.12 37.63 22.12L37.63 22.12Q36.61 22.12 35.84 21.63Q35.06 21.15 34.64 20.26Q34.22 19.37 34.20 18.19ZM46.77 22L45.29 22L45.29 13.47L46.77 13.47L46.77 17.02L50.59 17.02L50.59 13.47L52.06 13.47L52.06 22L50.59 22L50.59 18.21L46.77 18.21L46.77 22ZM57.58 22L56.04 22L59.26 13.47L60.59 13.47L63.82 22L62.28 22L61.58 20.01L58.27 20.01L57.58 22ZM59.93 15.28L58.69 18.82L61.16 18.82L59.93 15.28ZM69.26 22L67.78 22L67.78 13.47L70.78 13.47Q72.25 13.47 73.06 14.13Q73.86 14.79 73.86 16.05L73.86 16.05Q73.86 16.90 73.45 17.48Q73.03 18.06 72.30 18.37L72.30 18.37L74.21 21.92L74.21 22L72.62 22L70.91 18.71L69.26 18.71L69.26 22ZM69.26 14.66L69.26 17.52L70.78 17.52Q71.53 17.52 71.96 17.15Q72.38 16.77 72.38 16.11L72.38 16.11Q72.38 15.43 71.99 15.05Q71.60 14.68 70.82 14.66L70.82 14.66L69.26 14.66ZM79.94 14.66L77.30 14.66L77.30 13.47L84.07 13.47L84.07 14.66L81.41 14.66L81.41 22L79.94 22L79.94 14.66ZM87.39 19.42L87.39 19.42L88.87 19.42Q88.87 20.15 89.35 20.55Q89.83 20.95 90.73 20.95L90.73 20.95Q91.50 20.95 91.89 20.63Q92.28 20.32 92.28 19.80L92.28 19.80Q92.28 19.24 91.89 18.94Q91.49 18.63 90.46 18.32Q89.43 18.01 88.82 17.63L88.82 17.63Q87.65 16.90 87.65 15.72L87.65 15.72Q87.65 14.69 88.49 14.02Q89.33 13.35 90.68 13.35L90.68 13.35Q91.57 13.35 92.26 13.68Q92.96 14.01 93.36 14.61Q93.76 15.22 93.76 15.96L93.76 15.96L92.28 15.96Q92.28 15.29 91.86 14.91Q91.44 14.54 90.66 14.54L90.66 14.54Q89.94 14.54 89.54 14.85Q89.14 15.16 89.14 15.71L89.14 15.71Q89.14 16.18 89.57 16.50Q90.00 16.81 91.00 17.10Q91.99 17.40 92.60 17.78Q93.20 18.16 93.48 18.65Q93.76 19.13 93.76 19.79L93.76 19.79Q93.76 20.86 92.95 21.49Q92.13 22.12 90.73 22.12L90.73 22.12Q89.80 22.12 89.03 21.77Q88.25 21.43 87.82 20.83Q87.39 20.22 87.39 19.42Z" fill="#FFFFFF"/><path class="svg__text" d="" fill="#FFFFFF" x="118.54"/></svg>