<svg xmlns="http://www.w3.org/2000/svg" width="141.14" height="35" viewBox="0 0 141.14 35"><rect class="svg__rect" x="0" y="0" width="65.81" height="35" fill="#BF4080"/><rect class="svg__rect" x="63.81" y="0" width="77.33" height="35" fill="#BF4080"/><path class="svg__text" d="M13.78 19.42L13.78 19.42L15.27 19.42Q15.27 20.15 15.75 20.55Q16.23 20.95 17.12 20.95L17.12 20.95Q17.90 20.95 18.29 20.63Q18.68 20.32 18.68 19.80L18.68 19.80Q18.68 19.24 18.28 18.94Q17.89 18.63 16.85 18.32Q15.82 18.01 15.21 17.63L15.21 17.63Q14.05 16.90 14.05 15.72L14.05 15.72Q14.05 14.69 14.89 14.02Q15.73 13.35 17.07 13.35L17.07 13.35Q17.96 13.35 18.66 13.68Q19.36 14.01 19.75 14.61Q20.15 15.22 20.15 15.96L20.15 15.96L18.68 15.96Q18.68 15.29 18.26 14.91Q17.84 14.54 17.06 14.54L17.06 14.54Q16.33 14.54 15.93 14.85Q15.53 15.16 15.53 15.71L15.53 15.71Q15.53 16.18 15.96 16.50Q16.40 16.81 17.39 17.10Q18.39 17.40 18.99 17.78Q19.60 18.16 19.88 18.65Q20.16 19.13 20.16 19.79L20.16 19.79Q20.16 20.86 19.34 21.49Q18.52 22.12 17.12 22.12L17.12 22.12Q16.20 22.12 15.42 21.77Q14.64 21.43 14.21 20.83Q13.78 20.22 13.78 19.42ZM25.23 22L23.69 22L26.91 13.47L28.24 13.47L31.47 22L29.92 22L29.22 20.01L25.92 20.01L25.23 22ZM27.57 15.28L26.33 18.82L28.81 18.82L27.57 15.28ZM34.99 19.42L34.99 19.42L36.47 19.42Q36.47 20.15 36.95 20.55Q37.43 20.95 38.33 20.95L38.33 20.95Q39.10 20.95 39.49 20.63Q39.88 20.32 39.88 19.80L39.88 19.80Q39.88 19.24 39.49 18.94Q39.09 18.63 38.06 18.32Q37.03 18.01 36.42 17.63L36.42 17.63Q35.25 16.90 35.25 15.72L35.25 15.72Q35.25 14.69 36.09 14.02Q36.93 13.35 38.28 13.35L38.28 13.35Q39.17 13.35 39.86 13.68Q40.56 14.01 40.96 14.61Q41.36 15.22 41.36 15.96L41.36 15.96L39.88 15.96Q39.88 15.29 39.46 14.91Q39.04 14.54 38.26 14.54L38.26 14.54Q37.54 14.54 37.14 14.85Q36.73 15.16 36.73 15.71L36.73 15.71Q36.73 16.18 37.17 16.50Q37.60 16.81 38.60 17.10Q39.59 17.40 40.20 17.78Q40.80 18.16 41.08 18.65Q41.36 19.13 41.36 19.79L41.36 19.79Q41.36 20.86 40.55 21.49Q39.73 22.12 38.33 22.12L38.33 22.12Q37.40 22.12 36.63 21.77Q35.85 21.43 35.42 20.83Q34.99 20.22 34.99 19.42ZM45.22 19.42L45.22 19.42L46.70 19.42Q46.70 20.15 47.18 20.55Q47.66 20.95 48.56 20.95L48.56 20.95Q49.33 20.95 49.72 20.63Q50.11 20.32 50.11 19.80L50.11 19.80Q50.11 19.24 49.72 18.94Q49.32 18.63 48.29 18.32Q47.26 18.01 46.65 17.63L46.65 17.63Q45.48 16.90 45.48 15.72L45.48 15.72Q45.48 14.69 46.32 14.02Q47.16 13.35 48.51 13.35L48.51 13.35Q49.40 13.35 50.09 13.68Q50.79 14.01 51.19 14.61Q51.59 15.22 51.59 15.96L51.59 15.96L50.11 15.96Q50.11 15.29 49.69 14.91Q49.27 14.54 48.49 14.54L48.49 14.54Q47.77 14.54 47.37 14.85Q46.97 15.16 46.97 15.71L46.97 15.71Q46.97 16.18 47.40 16.50Q47.83 16.81 48.83 17.10Q49.82 17.40 50.43 17.78Q51.03 18.16 51.31 18.65Q51.59 19.13 51.59 19.79L51.59 19.79Q51.59 20.86 50.78 21.49Q49.96 22.12 48.56 22.12L48.56 22.12Q47.63 22.12 46.86 21.77Q46.08 21.43 45.65 20.83Q45.22 20.22 45.22 19.42Z" fill="#FFFFFF"/><path class="svg__text" d="M78.79 15.44L77.23 15.44L77.23 13.60L81.17 13.60L81.17 22L78.79 22L78.79 15.44ZM85.83 20.75L85.83 20.75Q85.83 20.15 86.22 19.78Q86.61 19.41 87.20 19.41L87.20 19.41Q87.79 19.41 88.18 19.78Q88.56 20.15 88.56 20.75L88.56 20.75Q88.56 21.34 88.17 21.72Q87.78 22.11 87.20 22.11L87.20 22.11Q86.62 22.11 86.22 21.72Q85.83 21.34 85.83 20.75ZM92.48 21.34L92.48 21.34L93.33 19.55Q93.84 19.88 94.44 20.07Q95.05 20.25 95.66 20.25L95.66 20.25Q96.27 20.25 96.63 20.01Q97.00 19.78 97.00 19.36L97.00 19.36Q97.00 18.94 96.64 18.72Q96.28 18.51 95.37 18.51L95.37 18.51L93.09 18.51L93.51 13.60L98.86 13.60L98.86 15.44L95.48 15.44L95.37 16.66L95.93 16.66Q97.70 16.66 98.54 17.38Q99.39 18.10 99.39 19.30L99.39 19.30Q99.39 20.08 98.99 20.73Q98.59 21.39 97.76 21.78Q96.94 22.17 95.73 22.17L95.73 22.17Q94.84 22.17 93.97 21.95Q93.10 21.74 92.48 21.34ZM103.11 21.34L103.11 21.34L103.97 19.55Q104.46 19.88 105.08 20.07Q105.70 20.25 106.30 20.25L106.30 20.25Q106.91 20.25 107.27 20.02Q107.63 19.79 107.63 19.37L107.63 19.37Q107.63 18.55 106.35 18.55L106.35 18.55L105.35 18.55L105.35 17.05L106.85 15.44L103.54 15.44L103.54 13.60L109.61 13.60L109.61 15.09L107.87 16.96Q108.91 17.18 109.47 17.82Q110.03 18.46 110.03 19.37L110.03 19.37Q110.03 20.11 109.63 20.75Q109.22 21.39 108.40 21.78Q107.58 22.17 106.37 22.17L106.37 22.17Q105.48 22.17 104.61 21.95Q103.74 21.74 103.11 21.34ZM114.19 20.75L114.19 20.75Q114.19 20.15 114.58 19.78Q114.97 19.41 115.56 19.41L115.56 19.41Q116.16 19.41 116.54 19.78Q116.93 20.15 116.93 20.75L116.93 20.75Q116.93 21.34 116.54 21.72Q116.15 22.11 115.56 22.11L115.56 22.11Q114.98 22.11 114.59 21.72Q114.19 21.34 114.19 20.75ZM121.16 17.80L121.16 17.80Q121.16 16.45 121.63 15.46Q122.10 14.46 122.94 13.95Q123.78 13.43 124.86 13.43L124.86 13.43Q125.93 13.43 126.77 13.95Q127.61 14.46 128.08 15.46Q128.56 16.45 128.56 17.80L128.56 17.80Q128.56 19.15 128.08 20.15Q127.61 21.14 126.77 21.65Q125.93 22.17 124.86 22.17L124.86 22.17Q123.78 22.17 122.94 21.65Q122.10 21.14 121.63 20.15Q121.16 19.16 121.16 17.80ZM123.54 17.80L123.54 17.80Q123.54 19.06 123.90 19.64Q124.25 20.22 124.86 20.22L124.86 20.22Q125.46 20.22 125.82 19.64Q126.17 19.06 126.17 17.80L126.17 17.80Q126.17 16.54 125.82 15.96Q125.46 15.38 124.86 15.38L124.86 15.38Q124.25 15.38 123.90 15.96Q123.54 16.54 123.54 17.80Z" fill="#FFFFFF" x="76.81"/></svg>