<svg width="72" height="72" viewBox="0 0 72 72" fill="none" xmlns="http://www.w3.org/2000/svg">
<g filter="url(#filter0_d_48_54)">
<rect x="4" width="64" height="64" rx="6" fill="white"/>
<path d="M36 22C38.2091 22 40 20.2091 40 18C40 15.7909 38.2091 14 36 14C33.7909 14 32 15.7909 32 18C32 20.2091 33.7909 22 36 22Z" fill="#FF0101"/>
<path d="M54 38V34C49.52 34 45.68 32.08 42.8 28.64L40.12 25.44C39.36 24.52 38.24 24 37.06 24H34.96C33.78 24 32.66 24.52 31.9 25.44L29.22 28.64C26.32 32.08 22.48 34 18 34V38C23.54 38 28.38 35.66 32 31.5V36L24.24 39.1C22.9 39.64 22 40.96 22 42.42C22 44.4 23.6 46 25.58 46H30V45C30 42.24 32.24 40 35 40H41C41.56 40 42 40.44 42 41C42 41.56 41.56 42 41 42H35C33.34 42 32 43.34 32 45V46H46.42C48.4 46 50 44.4 50 42.42C50 40.96 49.1 39.64 47.76 39.1L40 36V31.5C43.62 35.66 48.46 38 54 38Z" fill="#FF0101"/>
</g>
<defs>
<filter id="filter0_d_48_54" x="0" y="0" width="72" height="72" filterUnits="userSpaceOnUse" color-interpolation-filters="sRGB">
<feFlood flood-opacity="0" result="BackgroundImageFix"/>
<feColorMatrix in="SourceAlpha" type="matrix" values="0 0 0 0 0 0 0 0 0 0 0 0 0 0 0 0 0 0 127 0" result="hardAlpha"/>
<feOffset dy="4"/>
<feGaussianBlur stdDeviation="2"/>
<feComposite in2="hardAlpha" operator="out"/>
<feColorMatrix type="matrix" values="0 0 0 0 0 0 0 0 0 0 0 0 0 0 0 0 0 0 0.25 0"/>
<feBlend mode="normal" in2="BackgroundImageFix" result="effect1_dropShadow_48_54"/>
<feBlend mode="normal" in="SourceGraphic" in2="effect1_dropShadow_48_54" result="shape"/>
</filter>
</defs>
</svg>
